<?xml version="1.0" standalone="no"?>
<!DOCTYPE svg PUBLIC "-//W3C//DTD SVG 20010904//EN"
 "http://www.w3.org/TR/2001/REC-SVG-20010904/DTD/svg10.dtd">
<svg version="1.0" xmlns="http://www.w3.org/2000/svg"
 width="87.000000pt" height="76.000000pt" viewBox="0 0 87.000000 76.000000"
 preserveAspectRatio="xMidYMid meet">

<g transform="translate(0.000000,76.000000) scale(0.100000,-0.100000)"
fill="#000000" stroke="none">
<path d="M47 683 c-4 -3 -7 -155 -7 -336 l0 -329 32 21 33 20 5 128 5 128 65
0 64 0 21 -60 c39 -115 94 -177 195 -223 74 -35 191 -36 263 -4 57 25 123 75
138 105 10 17 7 23 -12 38 -24 18 -25 18 -59 -16 -115 -112 -300 -105 -403 16
-153 178 -27 452 208 452 70 0 133 -24 188 -73 36 -31 38 -32 62 -16 33 21 22
43 -43 91 -64 47 -122 65 -208 65 -163 0 -273 -82 -329 -245 l-21 -60 -64 0
-65 0 -3 118 -3 117 87 0 c90 0 95 2 125 53 9 16 0 17 -129 17 -76 0 -142 -3
-145 -7z"/>
<path d="M540 539 c-153 -46 -189 -254 -60 -348 73 -53 162 -51 238 6 38 29
40 38 8 58 -22 15 -26 14 -61 -10 -43 -28 -83 -32 -125 -10 -45 23 -70 62 -70
109 0 110 119 172 204 105 24 -19 27 -19 51 -3 30 19 31 26 8 46 -51 45 -133
64 -193 47z"/>
</g>
</svg>
