<?xml version="1.0" standalone="no"?>
<!DOCTYPE svg PUBLIC "-//W3C//DTD SVG 20010904//EN"
 "http://www.w3.org/TR/2001/REC-SVG-20010904/DTD/svg10.dtd">
<svg version="1.0" xmlns="http://www.w3.org/2000/svg"
 width="122.000000pt" height="119.000000pt" viewBox="0 0 122.000000 119.000000"
 preserveAspectRatio="xMidYMid meet">

<g transform="translate(0.000000,119.000000) scale(0.100000,-0.100000)"
fill="#000000" stroke="none">
<path d="M802 1023 c-10 -10 -10 -13 0 -13 7 0 28 -13 46 -28 24 -21 31 -34
26 -48 -4 -14 -3 -16 4 -5 8 11 14 10 32 -7 20 -19 21 -23 9 -39 -13 -16 -12
-17 3 -5 15 12 20 12 32 -1 8 -8 12 -17 9 -21 -4 -3 -1 -6 5 -6 7 0 12 -7 12
-15 0 -8 5 -15 12 -15 6 0 8 3 5 7 -4 3 -2 12 4 19 9 11 7 15 -5 20 -11 4 -14
13 -11 25 5 14 2 17 -9 13 -11 -4 -16 0 -16 15 0 12 -6 21 -15 21 -8 0 -15 7
-15 15 0 9 -6 12 -15 9 -10 -4 -15 0 -15 16 0 17 -4 20 -20 15 -13 -4 -20 -2
-20 7 0 21 -44 37 -58 21z"/>
<path d="M443 996 c-57 -19 -124 -59 -164 -98 -33 -33 -89 -115 -89 -130 0 -4
29 -8 64 -8 58 0 67 3 88 28 69 81 179 123 276 103 68 -14 133 -51 169 -96 27
-33 31 -35 91 -35 74 0 76 5 28 76 -42 62 -95 105 -173 141 -48 22 -75 28
-153 30 -61 2 -110 -2 -137 -11z m127 -6 c0 -5 -15 -10 -32 -10 -25 0 -29 3
-18 10 20 13 50 13 50 0z m30 -35 c0 -25 -4 -45 -10 -45 -11 0 -14 73 -3 83
11 12 13 8 13 -38z m-97 -8 c6 -42 2 -45 -14 -8 -8 17 -17 31 -21 31 -10 0
-10 1 1 -38 5 -17 6 -32 1 -32 -8 0 -12 9 -26 62 -3 10 2 18 13 20 30 7 41 -2
46 -35z m167 33 c0 -5 -8 -10 -18 -10 -12 0 -18 -9 -20 -27 -2 -28 -9 -40 -18
-31 -3 3 -2 22 1 42 6 29 12 36 31 36 13 0 24 -4 24 -10z m19 -44 c-7 -20 -17
-36 -21 -36 -4 0 -4 10 1 23 5 12 12 31 15 41 4 10 9 16 12 13 3 -3 0 -22 -7
-41z m-288 10 c-19 -23 4 -59 32 -51 21 6 22 6 3 -9 -28 -23 -34 -20 -53 20
-15 31 -15 36 -3 44 23 14 34 12 21 -4z m360 4 c5 0 9 -5 9 -11 0 -6 -8 -8
-18 -5 -24 8 -48 -30 -31 -50 13 -16 1 -18 -21 -4 -13 8 -13 14 4 45 12 23 25
34 34 30 7 -3 18 -5 23 -5z m-214 -32 c-3 -8 -6 -5 -6 6 -1 11 2 17 5 13 3 -3
4 -12 1 -19z m283 -59 c-6 -10 -18 -19 -26 -19 -14 0 -14 2 0 16 19 18 20 30
6 39 -16 10 -42 -16 -37 -37 6 -20 -4 -23 -20 -7 -9 9 -5 20 15 46 l27 34 23
-26 c17 -21 20 -30 12 -46z m-492 50 c-22 -12 -23 -32 -2 -50 12 -10 20 -10
35 -1 11 7 19 8 19 2 0 -18 -39 -31 -60 -20 -31 16 -24 80 9 80 14 -1 14 -2
-1 -11z"/>
<path d="M900 899 c0 -5 5 -7 10 -4 6 3 10 8 10 11 0 2 -4 4 -10 4 -5 0 -10
-5 -10 -11z"/>
<path d="M37 783 c-4 -3 -7 -84 -7 -179 0 -140 3 -173 14 -177 8 -3 20 1 27 9
10 13 10 17 -2 25 -11 7 -9 9 9 9 40 0 62 18 62 50 0 23 4 30 20 30 18 0 20 7
20 55 0 48 -2 55 -20 55 -20 0 -34 31 -28 61 2 9 -7 15 -27 17 -34 4 -60 22
-31 22 15 0 16 2 2 15 -16 16 -29 19 -39 8z m100 -190 c-3 -10 -5 -4 -5 12 0
17 2 24 5 18 2 -7 2 -21 0 -30z"/>
<path d="M1070 781 c0 -6 -12 -12 -27 -12 -25 -1 -24 -2 7 -9 35 -6 35 -7 9
-14 -31 -9 -37 -38 -34 -181 2 -85 3 -90 26 -95 16 -4 20 -8 11 -14 -9 -6 -9
-11 4 -23 10 -10 19 -12 25 -6 15 15 7 355 -8 361 -7 2 -13 -1 -13 -7z"/>
<path d="M947 653 c-16 -15 -6 -51 14 -56 12 -3 18 -10 15 -15 -3 -6 -16 -8
-28 -4 -14 3 -19 2 -14 -6 12 -20 54 -14 67 9 12 23 5 34 -26 42 -18 4 -18 5
3 6 30 1 29 31 -1 31 -13 0 -27 -3 -30 -7z"/>
<path d="M197 643 c-14 -14 -6 -34 18 -43 27 -10 34 -30 10 -30 -8 0 -15 5
-15 10 0 6 -4 10 -10 10 -5 0 -10 -7 -10 -15 0 -22 56 -20 70 3 10 16 10 16
20 0 20 -33 100 -14 100 23 0 51 -81 71 -101 25 -10 -20 -14 -22 -35 -12 -29
13 -32 30 -4 23 11 -3 20 -1 20 4 0 10 -53 12 -63 2z m148 -38 c0 -23 -4 -30
-20 -30 -15 0 -21 8 -23 33 -3 30 -1 33 20 30 18 -2 23 -9 23 -33z"/>
<path d="M424 635 c-9 -23 4 -48 21 -41 21 8 19 -11 -2 -23 -10 -6 -13 -11 -6
-11 7 0 21 9 31 20 l19 21 6 -21 c7 -28 44 -26 53 2 l7 23 8 -23 c11 -30 47
-29 55 2 9 36 1 60 -20 64 -11 3 -25 -3 -32 -12 -10 -15 -12 -15 -18 -1 -9 23
-47 19 -54 -7 l-5 -22 -8 22 c-10 25 -47 30 -55 7z m36 -10 c0 -8 -4 -15 -10
-15 -5 0 -10 7 -10 15 0 8 5 15 10 15 6 0 10 -7 10 -15z m70 -20 c0 -19 -4
-35 -10 -35 -5 0 -10 16 -10 35 0 19 5 35 10 35 6 0 10 -16 10 -35z m70 0 c0
-19 -4 -35 -10 -35 -5 0 -10 16 -10 35 0 19 5 35 10 35 6 0 10 -16 10 -35z"/>
<path d="M640 640 c-12 -8 -12 -10 -1 -10 9 0 12 -10 9 -35 -3 -24 0 -35 9
-35 9 0 13 15 13 45 0 46 -4 52 -30 35z"/>
<path d="M740 640 c0 -5 7 -7 15 -4 22 9 19 -19 -6 -50 l-20 -26 30 0 c17 0
31 5 31 10 0 6 -7 10 -17 10 -15 0 -14 2 2 20 9 10 15 26 12 35 -7 16 -47 21
-47 5z"/>
<path d="M804 636 c-3 -8 -4 -27 -2 -43 2 -22 8 -28 28 -28 22 0 25 5 28 43 3
39 2 42 -23 42 -14 0 -28 -6 -31 -14z m36 -31 c0 -19 -4 -35 -10 -35 -5 0 -10
16 -10 35 0 19 5 35 10 35 6 0 10 -16 10 -35z"/>
<path d="M875 640 c-3 -5 -1 -10 6 -10 7 0 10 -13 7 -35 -3 -27 0 -35 12 -35
11 0 15 11 15 45 0 36 -4 45 -17 45 -9 0 -20 -4 -23 -10z"/>
<path d="M700 610 c0 -5 5 -10 10 -10 6 0 10 5 10 10 0 6 -4 10 -10 10 -5 0
-10 -4 -10 -10z"/>
<path d="M700 570 c0 -5 5 -10 10 -10 6 0 10 5 10 10 0 6 -4 10 -10 10 -5 0
-10 -4 -10 -10z"/>
<path d="M195 450 c-19 -31 102 -168 186 -211 161 -81 345 -52 472 75 52 51
96 120 85 131 -3 4 -30 9 -59 12 l-54 5 -37 -45 c-55 -67 -134 -102 -223 -101
-88 1 -146 27 -212 95 -45 46 -50 49 -100 49 -28 0 -55 -4 -58 -10z m169 -76
c9 -3 16 -10 16 -15 0 -5 -9 -4 -20 3 -29 18 -60 -13 -42 -42 7 -11 8 -20 2
-20 -5 0 -14 9 -20 20 -21 40 17 72 64 54z m466 -15 c17 -30 4 -36 -19 -8 -16
20 -22 22 -33 11 -11 -11 -8 -17 14 -37 15 -12 24 -26 21 -29 -12 -11 -22 -6
-43 24 -18 25 -19 34 -10 45 18 22 57 18 70 -6z m-405 -25 c20 -16 20 -16 -2
-9 -30 8 -54 -35 -33 -60 12 -14 11 -15 -13 -4 l-26 12 22 38 c25 44 25 44 52
23z m305 -4 c-11 -7 -12 -13 -2 -35 10 -21 17 -25 35 -20 22 7 22 7 2 -9 -29
-22 -34 -20 -51 21 -15 34 -15 38 2 50 10 7 20 10 23 7 3 -3 -1 -9 -9 -14z
m-251 -19 c14 -9 7 -66 -10 -76 -10 -7 -7 31 4 41 4 4 7 11 7 17 0 11 -25 3
-25 -9 -1 -16 -23 -49 -29 -43 -8 7 21 79 32 79 4 0 13 -4 21 -9z m215 -15 c3
-13 9 -31 12 -40 3 -9 2 -16 -4 -16 -5 0 -12 10 -15 23 -2 12 -8 30 -12 40 -4
9 -3 17 3 17 5 0 13 -11 16 -24z m-45 1 c-11 -9 -15 -22 -11 -46 3 -22 1 -32
-6 -28 -5 4 -12 22 -14 42 -3 25 0 35 12 39 29 7 35 5 19 -7z m-79 -7 c0 -13
-30 -13 -50 0 -11 7 -7 10 18 10 17 0 32 -4 32 -10z m30 -37 c0 -55 -5 -54
-14 5 -4 26 -2 42 4 42 5 0 10 -21 10 -47z m-60 -28 c0 -8 -4 -15 -10 -15 -5
0 -10 7 -10 15 0 8 5 15 10 15 6 0 10 -7 10 -15z"/>
<path d="M153 329 c-2 -23 3 -25 10 -4 4 8 3 16 -1 19 -4 3 -9 -4 -9 -15z"/>
<path d="M179 328 c-8 -37 -6 -59 5 -55 8 3 18 1 24 -5 6 -6 12 -6 17 2 4 7
-2 14 -15 17 -12 3 -19 11 -16 19 3 7 1 16 -4 19 -6 4 -10 5 -11 3z"/>
<path d="M244 265 c-4 -8 -9 -13 -13 -11 -4 3 -13 1 -21 -5 -12 -7 -10 -9 9
-9 16 0 21 -4 17 -15 -4 -10 1 -15 14 -15 11 0 20 -6 20 -13 0 -8 10 -13 23
-13 13 1 21 -4 19 -12 -1 -8 2 -11 7 -7 15 9 4 28 -34 55 -23 16 -34 31 -31
43 5 21 -2 23 -10 2z"/>
</g>
</svg>
